<svg xmlns="http://www.w3.org/2000/svg" viewBox="0 0 12759.6 7443.1">
	<title>logo-ad-mobile</title>
	<path d="M1425.3 6965.9h1060.1v-47.5h-490.3c39.5-102.8 735.7-2037.4 735.7-2037.4h2013.5s688.4 1914.9 731.9 2037.4h-656.8v47.3H6576L4261.3 478.3 1943.8 6918.4h-518.5v47.5zm1317.3-2132.4l992.9-2757 992.9 2757.3H2742.6v-.3z"/>
	<path d="M6572 6965.9h1542.8c1780.2 0 3219.9-1052.3 3219.9-3184.5 0-2104.5-1376.6-3196.3-3239.8-3196.3H5915.3v47.3H6572v6333.5zm1016.6-43.5V636.2h395.5c466.9 0 854.6 27.9 1143.3 166.4 783.2 371.6 1052.3 1333.1 1052.3 2978.8 0 1562.7-391.5 2488.2-1032.4 2907.4-296.7 186.1-708.1 233.6-1072.1 233.6h-486.6z"/>
</svg>
