<?xml version="1.0" encoding="UTF-8" standalone="no"?>
<svg width="128px" height="27px" viewBox="0 0 128 27" version="1.1" xmlns="http://www.w3.org/2000/svg" xmlns:xlink="http://www.w3.org/1999/xlink">
    <!-- Generator: Sketch 3.8.2 (29753) - http://www.bohemiancoding.com/sketch -->
    <title>Group</title>
    <desc>Created with Sketch.</desc>
    <defs></defs>
    <g id="Page-1" stroke="none" stroke-width="1" fill="none" fill-rule="evenodd">
        <g id="Group" fill="#000000">
            <path d="M22.7581635,0.949316318 L21.6308504,0.949316318 L21.6308504,0.355993619 L27.3945566,0.355993619 L27.3945566,0.932364241 L26.1909591,0.932364241 L26.1909591,1.41549844 C26.1909591,5.41618864 26.1824831,9.4084028 26.1994352,13.409093 C26.1994352,13.9515595 26.3011476,14.510978 26.4621924,15.0280164 C26.6995215,15.7823838 27.2758921,16.1892336 28.0641637,16.2824701 C29.9543203,16.5197991 31.1240136,15.5620068 31.3528666,13.5701377 C31.3867708,13.2734764 31.4037229,12.976815 31.4037229,12.6801537 L31.4037229,1.44940259 L31.4037229,0.949316318 L30.2001254,0.949316318 L30.2001254,0.347517581 C30.3187899,0.339041542 30.4374545,0.322089465 30.556119,0.322089465 C33.6074929,0.322089465 36.6588668,0.313613427 39.7102406,0.339041542 C40.879934,0.347517581 41.9987711,0.593322699 43.0413238,1.16969332 C45.4146146,2.4834793 45.0077647,5.53485318 43.3549372,6.72149858 C42.3717168,7.43348582 41.2528797,7.71319509 40.0831863,7.88271586 C39.8204291,7.91662001 39.5491959,7.95052417 39.1932023,7.99290436 C39.6424323,8.13699702 40.006902,8.25566156 40.3713717,8.38280213 C42.7870426,9.25583411 43.8550235,10.764569 43.8634995,13.3412847 C43.8634995,13.9515595 43.8550235,14.5533582 43.8974037,15.163633 C43.956736,16.0281889 44.2533973,16.2485659 45.1603334,16.1299014 C45.2027136,16.3078982 45.2450938,16.485895 45.278998,16.6554158 C43.8889277,17.2995947 42.0411512,17.0029333 41.117263,15.9942848 C40.43918,15.2568694 40.3289915,14.3414572 40.2950873,13.3921409 C40.2696592,12.4089204 40.2950873,11.4087479 40.1509946,10.4424795 C39.9475697,9.04393314 39.0152055,8.28108967 37.6251352,8.25566156 L37.6251352,16.1892336 L38.8965409,16.1892336 L38.8965409,16.7995084 L33.1667389,16.7995084 L33.1667389,16.2146618 L34.1330073,16.2146618 L34.1330073,0.983220473 L32.2004705,0.983220473 L32.2004705,1.47483071 C32.2004705,5.20428767 32.2089465,8.93374464 32.1919944,12.6632016 C32.1919944,13.197192 32.1326622,13.7396585 32.0224737,14.2566969 C31.6919082,15.7993359 30.7002117,16.714748 29.1660487,17.0114094 C27.9624512,17.2487385 26.7419017,17.2148343 25.5637323,16.8588407 C23.7074798,16.2994221 22.7751156,14.9093518 22.7666396,12.7140578 C22.7581635,8.98460087 22.7666396,5.25514391 22.7666396,1.52568694 C22.7581635,1.34769013 22.7581635,1.16969332 22.7581635,0.949316318 L22.7581635,0.949316318 Z M37.6081831,7.57757847 C38.0574131,7.55215036 38.464263,7.56062639 38.8626368,7.50129412 C40.1848988,7.2978692 40.6934611,6.82321104 40.8629819,5.49247299 C40.9646944,4.7042014 40.9816464,3.88202566 40.879934,3.09375407 C40.659557,1.36464221 39.2949148,0.542466468 37.599707,1.0340767 C37.6081831,3.17851446 37.6081831,5.33142825 37.6081831,7.57757847 L37.6081831,7.57757847 Z" id="Shape"></path>
            <path d="M89.684964,11.9935946 C90.7359928,8.34042194 91.7870215,4.68724932 92.8550024,0.966268396 L91.9565423,0.966268396 L91.9565423,0.355993619 L94.3213571,0.355993619 L94.3213571,0.88150801 C94.304405,0.898460087 94.2789769,0.923888203 94.2620248,0.923888203 C93.7704146,0.847603856 93.6093698,1.09340897 93.4822293,1.54263902 C92.0073985,6.67911838 90.4986637,11.8071217 89.032309,16.9436011 C88.9136445,17.367403 88.6763154,17.3080707 88.379654,17.3334989 C88.0490885,17.367403 87.9134719,17.2402624 87.8287115,16.926649 C87.269293,14.8839237 86.6844463,12.8496745 86.1080757,10.8154252 C86.0572195,10.6459044 86.0063632,10.4763837 85.9216029,10.2051504 C85.2265677,12.2309236 84.5654367,14.1465084 83.9043057,16.0705691 C83.8110693,16.3502784 83.6924047,16.6299877 83.6245964,16.9096969 C83.539836,17.2317864 83.3787913,17.3419749 83.0312737,17.3419749 C82.6328999,17.3419749 82.4549031,17.2402624 82.3362386,16.8334126 C80.8444558,11.7138853 79.3272449,6.61131008 77.826986,1.49178279 C77.7083215,1.0764569 77.5557528,0.839127817 77.0980467,0.932364241 C77.0302384,0.949316318 76.9624301,0.923888203 76.8691937,0.906936126 L76.8691937,0.339041542 L90.6681845,0.339041542 L90.6681845,0.889984049 C90.6427563,0.906936126 90.6173282,0.923888203 90.5919001,0.923888203 C89.7697244,0.991696511 89.7697244,0.991696511 89.5323953,1.78844414 C89.0916413,3.26327484 88.6424112,4.72962952 88.2016572,6.20446022 C88.159277,6.35702892 88.0999448,6.54350177 88.142325,6.68759442 C88.6254592,8.45908648 89.1170694,10.2221025 89.6171557,11.9851185 C89.6256317,11.9935946 89.6595359,11.9935946 89.684964,11.9935946 L89.684964,11.9935946 Z M84.2857274,12.315684 C84.3196316,12.315684 84.3535357,12.315684 84.3874399,12.3241601 C84.7773377,11.2561792 85.1672354,10.1881983 85.5401811,9.11174145 C85.5740853,9.01850503 85.5571332,8.89136445 85.5232291,8.78965198 C84.8281939,6.26379249 84.1246827,3.737933 83.4126954,1.21207351 C83.3872673,1.11036105 83.2770788,0.966268396 83.2007945,0.957792357 C82.4633791,0.94084028 81.7259638,0.949316318 80.9376922,0.949316318 C82.0650053,4.78048575 83.1753664,8.55232291 84.2857274,12.315684 L84.2857274,12.315684 Z M88.9899288,0.966268396 L86.387785,0.966268396 C86.7946348,2.43262307 87.1930086,3.87354962 87.6252866,5.43314072 C87.701571,5.23819183 87.7354751,5.16190748 87.7524272,5.08562313 C88.159277,3.72945697 88.5661269,2.3732908 88.9899288,0.966268396 L88.9899288,0.966268396 Z" id="Shape"></path>
            <path d="M105.797913,8.39127817 C105.772485,10.7391409 105.340207,12.7225339 104.128134,14.4855499 C103.255102,15.7569557 102.119313,16.714748 100.568197,17.0283615 C98.3813795,17.4691155 96.6353156,16.6469397 95.2537213,14.9856362 C94.0331718,13.5108055 93.4568011,11.7732176 93.2788043,9.90001304 C93.0499513,7.50129412 93.3720408,5.19581164 94.6434465,3.09375407 C95.4571462,1.74606394 96.5590313,0.7035112 98.1101463,0.279709272 C100.237632,-0.305137388 102.034552,0.364469658 103.500907,1.94948887 C104.823169,3.38193938 105.44192,5.12800333 105.687725,7.035112 C105.764009,7.56062639 105.780961,8.10309286 105.797913,8.39127817 L105.797913,8.39127817 Z M101.805699,8.46756252 L101.873507,8.46756252 C101.873507,7.30634524 101.915888,6.15360399 101.856555,4.99238671 C101.814175,4.05154643 101.729415,3.10223011 101.52599,2.18681795 C101.297137,1.11883709 100.652958,0.695035162 99.5256447,0.686559123 C98.3813795,0.678083085 97.7372006,1.10188501 97.4829195,2.19529399 C97.2964466,3.01746973 97.1777821,3.86507358 97.169306,4.7042014 C97.1269258,7.44196185 97.1438779,10.1797223 97.16083,12.9259588 C97.169306,13.858323 97.2625425,14.7906873 97.7795808,15.612863 C98.5339482,16.8164605 100.398677,16.8418886 101.2039,15.6806713 C101.61075,15.0958247 101.788747,14.4177416 101.797223,13.7227064 C101.822651,11.9681664 101.805699,10.2221025 101.805699,8.46756252 L101.805699,8.46756252 Z" id="Shape"></path>
            <path d="M53.2803784,11.7732176 C53.1108576,11.0697064 53.0006691,10.3916233 52.7887681,9.75592038 C52.5005828,8.89136445 51.7716435,8.49299064 50.8392793,8.5947031 L50.8392793,16.1129493 C54.2466468,16.5282752 55.7214775,15.2229653 56.1537554,11.4680802 L56.8233625,11.4680802 C56.7470781,13.2226202 56.6792698,14.9856362 56.6029855,16.7825563 L46.2791705,16.7825563 L46.2791705,16.1892336 L47.3471514,16.1892336 L47.3471514,0.949316318 L46.2876466,0.949316318 L46.2876466,0.339041542 L56.2893721,0.339041542 C56.3402283,1.71215979 56.3910845,3.076802 56.4504168,4.4414442 C55.9079503,4.60248894 55.8740462,4.57706082 55.7045254,4.09392662 C55.5604327,3.6701247 55.4078641,3.24632277 55.2213912,2.83099688 C54.6958768,1.67825563 53.8143688,1.01712463 52.5260109,0.966268396 C51.9750684,0.949316318 51.432602,0.966268396 50.8477553,0.966268396 L50.8477553,7.80643151 C52.1784934,8.06918871 52.8226723,7.2978692 53.187142,4.9669586 L53.7804647,4.9669586 L53.7804647,11.7647415 C53.5939918,11.7732176 53.4329471,11.7732176 53.2803784,11.7732176 L53.2803784,11.7732176 Z" id="Shape"></path>
            <path d="M127.759329,0.347517581 C127.810185,1.89863264 127.861042,3.43279562 127.911898,4.9669586 C127.360955,5.12800333 127.335527,5.10257521 127.182959,4.60248894 C127.013438,4.05154643 126.843917,3.49212789 126.632016,2.95813746 C126.148882,1.77149206 125.241946,1.14426521 123.979016,1.01712463 C123.377217,0.957792357 122.775419,0.949316318 122.13124,0.923888203 L122.13124,7.82338359 C123.512834,8.10309286 124.275677,7.19615674 124.445198,5.01781483 L125.063949,5.01781483 L125.063949,11.8240738 L124.529958,11.8240738 C124.436722,11.3070354 124.360438,10.781521 124.233297,10.2644827 C123.945112,9.06088522 123.250077,8.51841875 122.122764,8.5947031 L122.122764,16.1892336 L123.538262,16.1892336 L123.538262,16.7995084 L117.427038,16.7995084 L117.427038,16.2146618 L118.62216,16.2146618 L118.62216,0.991696511 L117.427038,0.991696511 L117.427038,0.355993619 C120.876786,0.347517581 124.301105,0.347517581 127.759329,0.347517581 L127.759329,0.347517581 Z" id="Shape"></path>
            <path d="M57.4082092,16.7656043 L57.4082092,16.1977097 L58.5439983,16.1977097 L58.5439983,0.949316318 L57.4251612,0.949316318 L57.4251612,0.347517581 L63.307532,0.347517581 L63.307532,0.932364241 L62.0446022,0.932364241 L62.0446022,16.1807576 C63.0786789,16.1638055 64.1381838,16.257042 65.1214042,15.7484796 C65.7994873,15.4009621 66.2317653,14.8245914 66.4521423,14.1210802 C66.7318516,13.197192 66.9607046,12.2478757 67.2149858,11.2816073 L67.7574522,11.2816073 C67.706596,13.1124316 67.6642158,14.9093518 67.6133596,16.7656043 C64.2314202,16.7656043 60.8410048,16.7656043 57.4082092,16.7656043 L57.4082092,16.7656043 Z" id="Shape"></path>
            <path d="M9.80677661,11.2816073 L10.3577191,11.2816073 C10.3068629,13.1293837 10.2560067,14.951732 10.2051504,16.7995084 L0.0254281157,16.7995084 L0.0254281157,16.1892336 L1.14426521,16.1892336 L1.14426521,0.966268396 L0.0254281157,0.966268396 L0.0254281157,0.355993619 L5.89932284,0.355993619 L5.89932284,0.932364241 L4.5940129,0.932364241 L4.5940129,16.1807576 C5.58570941,16.1807576 6.58588196,16.2485659 7.53519828,15.8417161 C8.32346986,15.5026745 8.8150801,14.8669716 9.06088522,14.070224 C9.34059449,13.1632879 9.55249545,12.2478757 9.80677661,11.2816073 L9.80677661,11.2816073 Z" id="Shape"></path>
            <path d="M107.349028,0.949316318 L106.230191,0.949316318 L106.230191,0.347517581 L112.129514,0.347517581 L112.129514,0.923888203 L110.841156,0.923888203 L110.841156,16.1807576 C111.832853,16.1638055 112.816073,16.2400899 113.756913,15.8417161 C114.629945,15.4687704 115.11308,14.7483071 115.367361,13.8752751 C115.613166,13.0276713 115.799639,12.1546393 116.020016,11.2731313 L116.54553,11.2731313 C116.54553,11.9681664 116.554006,12.6547256 116.54553,13.3412847 C116.528578,14.3584093 116.486198,15.3755339 116.469246,16.3841825 C116.46077,16.6638918 116.426866,16.8249365 116.079348,16.8164605 C112.900834,16.8079845 109.722319,16.8079845 106.552281,16.8079845 C106.459044,16.8079845 106.357332,16.7910324 106.247143,16.7825563 L106.247143,16.1892336 L107.374456,16.1892336 C107.349028,11.1205626 107.349028,6.06884361 107.349028,0.949316318 L107.349028,0.949316318 Z" id="Shape"></path>
            <path d="M17.6047321,0.339041542 C18.0031059,1.79692017 18.4099557,3.25479881 18.7998535,4.7042014 C19.79155,8.3319459 20.7917226,11.9681664 21.757991,15.604387 C21.8851316,16.0790451 22.0631284,16.2824701 22.5462626,16.1977097 C22.639499,16.1807576 22.7412115,16.2061857 22.8514,16.2146618 L22.8514,16.7995084 L17.367403,16.7995084 L17.367403,16.1977097 L18.5201442,16.1977097 C18.1217704,14.7398311 17.7403487,13.3243326 17.358927,11.8918821 C16.3163742,11.8918821 15.3077256,11.8834061 14.290601,11.9003581 C14.1973646,11.9003581 14.0532719,12.0105466 14.0278438,12.095307 C13.6633742,13.4429972 13.3073805,14.7906873 12.9429109,16.1807576 L14.4262176,16.1807576 L14.4262176,16.8079845 L11.0103741,16.8079845 L11.0103741,16.2146618 L12.1631153,16.2146618 C12.4089204,15.3331538 12.6462495,14.4855499 12.8920546,13.62947 C14.070224,9.4084028 15.2483934,5.1873356 16.4265627,0.966268396 C16.6045595,0.322089465 16.6045595,0.322089465 17.2572145,0.330565504 C17.358927,0.330565504 17.4691155,0.330565504 17.6047321,0.339041542 L17.6047321,0.339041542 Z M14.282125,11.1714188 L17.1639781,11.1714188 C16.6893199,9.42535488 16.2316138,7.71319509 15.7654317,6.0010353 C15.7400036,6.0010353 15.7145755,6.00951134 15.6891474,6.00951134 C15.2314413,7.72167113 14.7567831,9.42535488 14.282125,11.1714188 L14.282125,11.1714188 Z" id="Shape"></path>
            <path d="M71.3682447,9.13716957 C70.9529188,10.4594316 71.3851967,11.5443645 72.1480402,12.527585 C72.5803182,13.0870035 73.0973565,13.1124316 73.6906792,12.6547256 C73.6059188,12.4936808 73.5211585,12.315684 73.427922,12.1461633 C72.758315,10.9086616 72.0802319,9.67115999 71.4191009,8.42518233 C71.2411041,8.09461682 71.0800593,7.7386232 70.9868229,7.37415355 C70.6901616,6.23836438 71.3428165,5.28904806 72.5125099,5.17038352 C72.9108837,5.12800333 73.3346856,5.1449554 73.7330594,5.21276371 C74.3179061,5.32295221 74.7925642,5.64504168 74.962085,6.24684042 C75.1400818,6.86559123 74.962085,7.42500978 74.512855,7.87423982 C74.3263821,8.06071267 74.1060051,8.21328136 73.9534364,8.3319459 C73.9619125,7.79795547 74.0297208,7.25548901 73.9788645,6.72149858 C73.9195323,6.07731965 73.5296345,5.72980207 73.0210722,5.72132603 C72.5803182,5.72132603 72.3684172,5.96713114 72.4447016,6.39940911 C72.4616536,6.49264554 72.4870817,6.594358 72.5294619,6.67911838 C73.3431616,8.16242513 74.1653374,9.63725584 74.9875131,11.1290386 C75.402839,10.6967607 75.6571202,9.80677661 75.5723598,9.08631333 C75.3604588,9.06936126 75.1400818,9.06088522 74.9027527,9.04393314 L74.9027527,8.50146667 L76.937002,8.50146667 L76.937002,9.04393314 L76.4114876,9.04393314 C76.1741585,9.81525265 76.0385419,10.561144 75.7164524,11.213799 C75.4706473,11.7054092 75.4960754,12.0359748 75.7418806,12.5021569 C76.0131138,13.0107192 76.3012991,13.3243326 76.937002,13.1548118 L76.937002,13.7650866 C76.1063502,13.7650866 75.2926505,13.7905147 74.4704748,13.7481345 C74.300954,13.7396585 74.1483853,13.4684253 73.9703885,13.3073805 C71.9022351,14.2143167 70.6562574,14.0447959 69.9951264,12.747962 C69.3424714,11.4765562 69.8764619,10.0271536 71.3682447,9.13716957 L71.3682447,9.13716957 Z" id="Shape"></path>
            <path d="M92.9651909,22.4445501 L93.643274,22.4445501 L93.643274,26.3350518 C93.2533762,26.4537163 92.9990951,26.3350518 92.761766,26.0214384 C92.2023474,25.2501189 91.6005487,24.5042275 90.9309417,23.6481476 L90.9309417,26.3520039 L90.2104784,26.3520039 L90.2104784,22.4699782 C90.6173282,22.3682658 90.9055135,22.427598 91.1682707,22.8005437 C91.6514049,23.4955789 92.2023474,24.1482339 92.7193858,24.8093649 C92.7787181,24.8856492 92.8380503,24.9449815 92.9651909,25.0805981 L92.9651909,22.4445501 L92.9651909,22.4445501 Z" id="Shape"></path>
            <path d="M39.1932023,24.9449815 L39.1932023,22.4445501 L39.8882375,22.4445501 L39.8882375,26.3350518 C39.5152918,26.4537163 39.2525346,26.3520039 39.0067294,26.0129623 C38.4388349,25.2246907 37.820084,24.4787994 37.150477,23.6142434 L37.150477,26.3435278 L36.4639179,26.3435278 L36.4639179,22.4615022 C36.8622917,22.3513137 37.150477,22.427598 37.4047582,22.7920677 C37.9387486,23.5379591 38.5235952,24.2414703 39.0830138,24.9704096 C39.125394,24.9619336 39.1592981,24.9534575 39.1932023,24.9449815 L39.1932023,24.9449815 Z" id="Shape"></path>
            <path d="M53.3905669,26.3265758 C52.8226723,26.4706684 52.4242985,26.3520039 52.1954454,25.8349655 C52.1530652,25.7502051 52.0683049,25.6823968 52.0344007,25.5891604 C51.7885956,25.0721221 51.3986978,24.8686971 50.788423,25.0466939 L50.788423,26.3520039 L50.0849118,26.3520039 L50.0849118,22.4360741 C50.7968991,22.4360741 51.4834582,22.4021699 52.1700173,22.4445501 C52.8057202,22.4869303 53.195618,22.868352 53.2973305,23.4192945 C53.407519,24.0295693 53.1701899,24.4957514 52.5853432,24.8093649 C52.534487,24.834793 52.4921068,24.8602211 52.4073464,24.9026013 C52.7294359,25.3772594 53.0515253,25.8349655 53.3905669,26.3265758 L53.3905669,26.3265758 Z M50.7968991,24.3516588 C51.1952729,24.3516588 51.5766946,24.3770869 51.9496403,24.3431827 C52.3649662,24.3092786 52.5768672,24.0465214 52.5599151,23.6820517 C52.542963,23.2752019 52.2717298,23.1056811 51.9242122,23.080253 C51.5512665,23.0463488 51.1783208,23.071777 50.788423,23.071777 C50.7968991,23.529483 50.7968991,23.9278568 50.7968991,24.3516588 L50.7968991,24.3516588 Z" id="Shape"></path>
            <path d="M62.4514521,22.419122 L64.1466598,22.419122 C64.9942637,22.427598 65.4689218,22.7242594 65.6299666,23.3430102 C65.7994873,24.0041412 65.5621582,24.4703233 64.7738867,24.9280294 C65.0959761,25.3857355 65.4180656,25.8434416 65.7401551,26.3096237 C65.1044522,26.4791445 64.9942637,26.4452403 64.6467461,25.9536301 C64.5365576,25.8010614 64.409417,25.6654448 64.3331327,25.5044 C64.0873275,24.9788856 63.6720016,24.9365054 63.1380112,25.05517 L63.1380112,26.3604799 L62.4514521,26.3604799 C62.4514521,25.05517 62.4514521,23.7668121 62.4514521,22.419122 L62.4514521,22.419122 Z M63.1719154,24.3516588 C63.5702892,24.3516588 63.9517109,24.3770869 64.3246566,24.3431827 C64.7399825,24.3092786 64.9518835,24.0465214 64.9434074,23.6820517 C64.9349314,23.2752019 64.6552221,23.1141571 64.3077045,23.080253 C63.9347588,23.0463488 63.5618131,23.071777 63.1719154,23.071777 L63.1719154,24.3516588 L63.1719154,24.3516588 Z" id="Shape"></path>
            <path d="M69.3509475,26.3604799 L69.3509475,22.4784543 C70.0459826,22.4784543 70.7494938,22.3936939 71.4191009,22.4954063 C72.3853693,22.647975 72.9956441,23.5464351 72.9278358,24.5042275 C72.8515514,25.5213521 72.1565162,26.2757195 71.1648197,26.3520039 C70.5799731,26.4028601 69.9781743,26.3604799 69.3509475,26.3604799 L69.3509475,26.3604799 Z M70.0968389,23.088729 L70.0968389,25.7078249 C70.8257782,25.724777 71.5547175,25.8434416 71.9869955,25.1060262 C72.2751808,24.614416 72.2667047,24.0973776 71.9446153,23.6227195 C71.4869092,22.9531124 70.791874,23.0548249 70.0968389,23.088729 L70.0968389,23.088729 Z" id="Shape"></path>
            <path d="M59.0101804,22.3597897 C60.23073,22.3767418 61.0444297,23.2412977 61.0274776,24.4787994 C61.0105255,25.6400166 60.0866373,26.4706684 58.8406597,26.4452403 C57.7218226,26.4282882 56.8572666,25.5213521 56.8742187,24.3855629 C56.8911708,23.1989175 57.7896309,22.3343616 59.0101804,22.3597897 L59.0101804,22.3597897 Z M60.2815862,24.4279431 C60.2900623,23.6227195 59.7306437,23.0293968 58.9678002,23.0209207 C58.2219089,23.0124447 57.6455382,23.5888153 57.6370622,24.3601348 C57.6285862,25.1738345 58.1710526,25.7756333 58.9254201,25.7841093 C59.7136916,25.7925853 60.2731102,25.2246907 60.2815862,24.4279431 L60.2815862,24.4279431 Z" id="Shape"></path>
            <path d="M88.1338489,24.8178409 C87.710047,24.8008888 87.4049096,24.7839367 87.0743441,24.7669847 L87.0743441,24.182138 L88.7441237,24.182138 C88.7441237,24.6907003 88.7525997,25.2077387 88.7356477,25.724777 C88.7356477,25.7925853 88.6763154,25.8858218 88.6169831,25.9282019 C87.6507147,26.6910454 85.9216029,26.6825694 85.2689479,25.4196396 C84.7942897,24.5211795 85.0231428,23.3684383 85.7859862,22.7751156 C86.5827339,22.1563648 87.7778553,22.1902689 88.600031,22.8937801 C88.4644144,23.0633009 88.3287978,23.2243456 88.2270854,23.3514862 C87.8541397,23.2243456 87.5320502,23.0633009 87.2014847,23.0209207 C86.5996859,22.9361603 86.0995997,23.2836779 85.8792227,23.8600485 C85.6588457,24.4279431 85.8198904,25.1314543 86.2521684,25.495924 C86.6674943,25.8434416 87.4642419,25.936678 87.8710917,25.5976364 C88.0236604,25.4535438 88.0321365,25.1229783 88.1338489,24.8178409 L88.1338489,24.8178409 Z" id="Shape"></path>
            <path d="M48.3812281,24.0634735 L48.3812281,24.7076524 L46.4402153,24.7076524 L46.4402153,25.7332531 L48.6270332,25.7332531 L48.6270332,26.3520039 L45.728228,26.3520039 L45.728228,22.4445501 L48.6270332,22.4445501 L48.6270332,23.0378728 L46.4402153,23.0378728 L46.4402153,24.0634735 C47.0843942,24.0634735 47.711621,24.0634735 48.3812281,24.0634735 L48.3812281,24.0634735 Z" id="Shape"></path>
            <path d="M75.0553214,24.7076524 L75.0553214,25.7332531 L77.2845196,25.7332531 L77.2845196,26.3435278 L74.3518102,26.3435278 L74.3518102,22.4530261 L77.2336633,22.4530261 L77.2336633,23.0548249 L75.0553214,23.0548249 L75.0553214,24.0465214 L76.9793822,24.0465214 L76.9793822,24.7076524 C76.3352033,24.7076524 75.6995004,24.7076524 75.0553214,24.7076524 L75.0553214,24.7076524 Z" id="Shape"></path>
            <path d="M81.3614941,22.868352 C81.2343535,23.0548249 81.115689,23.2158696 81.0139765,23.3599623 C80.7088391,23.2412977 80.4376059,23.1056811 80.1409446,23.0293968 C79.9714238,22.9870166 79.7595228,22.9954926 79.6154302,23.0633009 C79.4713375,23.1311092 79.3018167,23.309106 79.2933407,23.4447227 C79.2848647,23.5803393 79.4374334,23.8007163 79.57305,23.8515725 C79.9459957,24.0126172 80.3528455,24.0973776 80.7342673,24.2414703 C81.1495932,24.402515 81.4632066,24.6567962 81.4716826,25.1653585 C81.4886347,25.9112499 81.0563567,26.385908 80.2511331,26.4367643 C79.5560979,26.4876205 78.9458231,26.2926716 78.3948806,25.8010614 C78.5304972,25.6400166 78.6576378,25.4789719 78.7508742,25.3603074 C79.1577241,25.5128761 79.5137177,25.6739208 79.8866634,25.7756333 C80.0477081,25.8180134 80.2680851,25.8010614 80.4206538,25.724777 C80.5647465,25.6569687 80.7257912,25.4704959 80.7342673,25.3348792 C80.7427433,25.1992626 80.5986506,24.9873617 80.4715101,24.9195534 C80.1578966,24.7754607 79.8103791,24.6991764 79.4713375,24.5889879 C78.7423982,24.3516588 78.471165,23.9787131 78.5644014,23.3260581 C78.6406857,22.7751156 79.1238199,22.3936939 79.7764749,22.3597897 C80.3613216,22.3343616 80.8783599,22.4699782 81.3614941,22.868352 L81.3614941,22.868352 Z" id="Shape"></path>
            <path d="M44.3890139,22.4699782 L44.3890139,23.0633009 L43.1684644,23.0633009 L43.1684644,26.3520039 L42.4649532,26.3520039 L42.4649532,23.0972051 L41.2189755,23.0972051 L41.2189755,22.4784543 C42.2615283,22.4699782 43.312557,22.4699782 44.3890139,22.4699782 L44.3890139,22.4699782 Z" id="Shape"></path>
            <path d="M55.4248161,22.4445501 L55.4248161,26.3520039 L54.7636851,26.3520039 L54.7636851,22.4445501 L55.4248161,22.4445501 L55.4248161,22.4445501 Z" id="Shape"></path>
            <path d="M83.5737402,26.3604799 L82.9210852,26.3604799 L82.9210852,22.4530261 L83.5737402,22.4530261 L83.5737402,26.3604799 L83.5737402,26.3604799 Z" id="Shape"></path>
            <path d="M34.1669114,22.4360741 L34.8110904,22.4360741 L34.8110904,26.3435278 L34.1669114,26.3435278 L34.1669114,22.4360741 L34.1669114,22.4360741 Z" id="Shape"></path>
        </g>
    </g>
</svg>