<?xml version="1.0" encoding="utf-8"?>
<!-- Generator: Adobe Illustrator 19.2.1, SVG Export Plug-In . SVG Version: 6.00 Build 0)  -->
<svg version="1.1" id="Layer_1" xmlns="http://www.w3.org/2000/svg" xmlns:xlink="http://www.w3.org/1999/xlink" x="0px" y="0px"
	 viewBox="0 0 158.3 100.3" style="enable-background:new 0 0 158.3 100.3;" xml:space="preserve">
<path d="M154.8,3.5v93.3H3.5V3.5L154.8,3.5 M158.3,0h-3.5H3.5H0v3.5v93.3v3.5h3.5h151.3h3.5v-3.5V3.5V0L158.3,0z"/>
<g>
	<path d="M82.2,51.5v-1.6h-5.8v1.6h2.1c0,1.8-0.4,4.1-1.7,6.1l-4.2-7.5l-2.4-4.4c-0.5-0.9-0.8-1.7-0.8-2.4c0.1-0.8,0.6-1.3,1.4-1.4
		c1.3-0.1,2.9,0.5,3.2,3.5c0.2,2.1-0.2,3.3-0.8,4.1c2.2-1.1,3.5-2.8,3.5-5c0-1.1-0.4-2-1.2-2.7c-1.1-1-2.7-1.6-4.8-1.5
		c-3.6,0.1-5.6,1.9-5.6,5.1c0,1.8,1,3.6,1.9,5.1c0.1,0.1,0.3,0.5,0.3,0.5L73,61.7c-0.4,0.4-1.2,0.9-2.4,0.9c-2.4,0-4.5-4.9-4.8-7.2
		c-0.2-1.7,0.1-3,0.7-3.9c-2.6,1.7-4.9,4-4.9,7.3c0,3.2,2.2,6.5,6.5,6.5c2,0,4-0.7,5.6-2.1l0.8,1.6H82v-1.6h-2.3l-2.2-3.9
		c1.6-2.3,2.4-4.7,2.5-7.9L82.2,51.5L82.2,51.5z"/>
	<g>
		<path d="M55.7,73.5H26.9v-1.7h3.3V28.6h-3.3v-1.7h16.8v1.7h-3.8v43.2c6.3,0,8-0.3,10.4-2.2c2.1-1.7,3.5-6,4.2-11.7h1.7L55.7,73.5z
			"/>
		<path d="M113.4,74.9l-5.7-20.1h-0.1l-6.9,20.1H98L84.3,28.5H82v-1.7h39.2v1.7h-2.6l-4.8,15.9l4.4,15.7h0.1l9.1-31.6h-2.7v-1.7h6.8
			v1.7h-1.9l-13.5,46.4L113.4,74.9L113.4,74.9z M93.5,28.5l9.6,32.5h0.1l3.5-9.7l-6.3-22.8H93.5z M108.9,28.5l3.5,12.7h0.1l3.8-12.7
			H108.9z"/>
	</g>
</g>
</svg>
